#!OML:ASF F:\VICON\USERDATA\INSTALL\rory3\rory3.ASF
:FULLY-SPECIFIED
:DEGREES
1108
root 3.41949 19.9969 0.21547 13.7739 -9.67298 -6.75338
lowerback 3.02684 0.650076 4.92503
upperback -7.05847 1.37289 1.71241
thorax -9.09453 0.388628 -1.08639
lowerneck -15.6233 -1.52603 -4.2969
upperneck 24.2727 -1.65479 2.40097
head 10.4073 -0.883468 1.35459
rclavicle -3.01625e-014 1.54058e-014
rhumerus -44.227 2.81961 -86.8871
rradius 63.2996
rwrist 6.21207
rhand -24.2912 -42.2145
rfingers 7.12502
rthumb 2.19614 -792.183
lclavicle -3.01625e-014 1.54058e-014
lhumerus -40.229 -17.1832 80.155
lradius 56.3606
lwrist 0.437264
lhand -32.5375 -41.7894
lfingers 7.12502
lthumb -5.76772 -11.8879
rfemur -91.0981 11.1153 30.6687
rtibia 139.319
rfoot 5.68886 -9.52446
rtoes -0.451617
lfemur -18.8446 -3.37725 -17.4286
ltibia 18.6604
lfoot 15.764 -2.57608
ltoes -13.2941
1109
root 3.4221 19.9691 0.220475 13.6437 -10.1022 -6.8124
lowerback 3.11351 0.772412 5.04968
upperback -6.99093 1.54749 1.67782
thorax -9.05904 0.465503 -1.21237
lowerneck -15.9038 -1.41705 -4.12442
upperneck 24.653 -1.5094 2.28326
head 10.5925 -0.815851 1.30517
rclavicle 1.41355e-014 -3.69739e-014
rhumerus -44.1401 3.22828 -87.0061
rradius 63.325
rwrist 6.48785
rhand -21.0817 -48.0026
rfingers 7.12502
rthumb 5.29544 -797.916
lclavicle 1.41355e-014 -3.69739e-014
lhumerus -40.3223 -16.7558 80.3418
lradius 55.6435
lwrist 0.471844
lhand -32.234 -41.2904
lfingers 7.12502
lthumb -5.47469 -11.3811
rfemur -90.6839 12.107 30.8039
rtibia 139.332
rfoot 5.77097 -9.91319
rtoes 0.235288
lfemur -18.6578 -3.69862 -17.3835
ltibia 18.425
lfoot 15.7684 -2.59516
ltoes -13.8009
1110
root 3.42499 19.9331 0.229459 13.4902 -10.609 -6.97803
lowerback 3.25315 0.924378 5.34277
upperback -6.92588 1.77919 1.64431
thorax -9.05072 0.557888 -1.43811
lowerneck -16.2143 -1.30045 -3.97569
upperneck 25.0691 -1.34179 2.15159
head 10.7982 -0.742442 1.25825
rclavicle 2.1579e-014 -8.84592e-015
rhumerus -44.043 3.69125 -87.1654
rradius 63.3375
rwrist 6.61381
rhand -21.8503 -47.5011
rfingers 7.12502
rthumb 4.55328 -797.432
lclavicle 2.1579e-014 -8.84592e-015
lhumerus -40.2816 -16.1903 80.3038
lradius 54.8844
lwrist -0.225189
lhand -32.4104 -41.5228
lfingers 7.12502
lthumb -5.64498 -11.618
rfemur -90.1144 13.258 31.0296
rtibia 139.205
rfoot 5.99714 -10.1741
rtoes -0.117252
lfemur -18.3668 -3.84526 -17.2741
ltibia 18.1271
lfoot 16.0861 -2.26468
ltoes -12.9502
1111
root 3.43085 19.8828 0.239531 13.402 -11.0331 -6.87085
lowerback 3.36925 1.01495 5.37388
upperback -7.02896 1.91406 1.61047
thorax -9.22345 0.613947 -1.50853
lowerneck -15.8527 -1.29762 -4.28613
upperneck 25.0901 -1.31781 2.33241
head 10.7382 -0.741753 1.38014
rclavicle 4.99446e-015 -1.90833e-014
rhumerus -44.1462 4.30651 -87.2033
rradius 63.3314
rwrist 7.09799
rhand -21.8995 -46.6864
rfingers 7.12502
rthumb 4.50577 -796.618
lclavicle 4.99446e-015 -1.90833e-014
lhumerus -40.6756 -15.4528 80.3391
lradius 54.3481
lwrist -0.922379
lhand -32.6803 -41.8179
lfingers 7.12502
lthumb -5.90552 -11.9202
rfemur -89.7183 14.0922 30.8699
rtibia 139.128
rfoot 5.90749 -10.3353
rtoes -0.607285
lfemur -18.076 -3.88388 -17.5488
ltibia 17.78
lfoot 16.5528 -2.28016
ltoes -12.0057
1112
root 3.4419 19.8229 0.262961 13.3531 -11.3594 -6.5694
lowerback 3.19127 1.02824 5.30614
upperback -7.11743 1.91219 1.55386
thorax -9.21472 0.614158 -1.52701
lowerneck -15.418 -1.25007 -4.70957
upperneck 25.0812 -1.2292 2.60009
head 10.6514 -0.712333 1.56084
rclavicle 1.04331e-014 -1.98785e-015
rhumerus -44.1441 4.94419 -87.1474
rradius 63.2563
rwrist 7.94269
rhand -19.9417 -46.6971
rfingers 7.12502
rthumb 6.39605 -796.581
lclavicle 1.04331e-014 -1.98785e-015
lhumerus -41.1756 -14.6965 80.4097
lradius 53.8553
lwrist -1.21479
lhand -32.6198 -42.0841
lfingers 7.12502
lthumb -5.84717 -12.1848
rfemur -89.3486 14.6101 30.3964
rtibia 139.047
rfoot 5.52511 -10.5112
rtoes -0.0897782
lfemur -17.8233 -3.97694 -18.1109
ltibia 17.5409
lfoot 17.1112 -2.41337
ltoes -11.7349
1113
root 3.44966 19.7516 0.284483 13.3562 -11.8138 -6.35477
lowerback 2.97052 1.09278 5.25142
upperback -7.22683 1.97888 1.50506
thorax -9.19933 0.64714 -1.55069
lowerneck -15.1269 -1.08801 -4.65727
upperneck 25.2701 -0.970614 2.37585
head 10.6523 -0.620298 1.50826
rclavicle 2.79386e-015 -4.06018e-014
rhumerus -44.312 5.69328 -87.2688
rradius 63.3924
rwrist 8.0685
rhand -19.3719 -47.7866
rfingers 7.12502
rthumb 6.94615 -797.653
lclavicle 2.79386e-015 -4.06018e-014
lhumerus -41.6187 -14.0315 80.4074
lradius 53.3681
lwrist -1.40303
lhand -32.3353 -42.5204
lfingers 7.12502
lthumb -5.57244 -12.6136
rfemur -89.242 15.2729 29.9989
rtibia 138.901
rfoot 5.49534 -10.6995
rtoes 0.769127
lfemur -17.6266 -3.77434 -18.6308
ltibia 17.3101
lfoot 17.5942 -2.21586
ltoes -11.9937
1114
root 3.45087 19.6675 0.289953 13.4646 -12.3157 -6.19793
lowerback 2.80012 1.15054 5.08733
upperback -7.07756 2.02292 1.47818
thorax -8.93211 0.688307 -1.48751
lowerneck -16.1176 -0.92919 -3.97909
upperneck 25.7234 -0.662968 1.56532
head 10.9984 -0.513913 1.14648
rclavicle 1.95679e-015 -2.32081e-014
rhumerus -43.8879 6.52904 -87.4831
rradius 63.6344
rwrist 7.74898
rhand -19.8612 -48.6103
rfingers 7.12502
rthumb 6.4738 -798.491
lclavicle 1.95679e-015 -2.32081e-014
lhumerus -41.3327 -13.4044 80.1513
lradius 52.8439
lwrist -1.31922
lhand -31.8052 -42.1171
lfingers 7.12502
lthumb -5.06061 -12.1975
rfemur -89.7669 15.8895 29.7444
rtibia 138.797
rfoot 6.11676 -10.7695
rtoes 0.0350446
lfemur -17.6722 -3.20001 -19.1062
ltibia 17.2477
lfoot 18.1304 -1.67673
ltoes -11.7206
1115
root 3.4526 19.5823 0.29609 13.593 -12.668 -5.96015
lowerback 2.46474 1.14743 4.87017
upperback -7.05867 1.9781 1.47631
thorax -8.7195 0.686788 -1.35599
lowerneck -16.3472 -0.753251 -3.55374
upperneck 25.8473 -0.358457 0.974645
head 11.0792 -0.408431 0.903376
rclavicle -2.64675e-014 -8.62228e-015
rhumerus -43.6186 7.25512 -87.5312
rradius 63.5833
rwrist 7.65871
rhand -20.7653 -45.5828
rfingers 7.12502
rthumb 5.60096 -795.489
lclavicle -2.64675e-014 -8.62228e-015
lhumerus -41.439 -12.8466 79.9664
lradius 52.4151
lwrist -1.23788
lhand -30.6967 -41.7101
lfingers 7.12502
lthumb -3.99026 -11.7677
rfemur -90.7959 15.9111 29.3407
rtibia 138.238
rfoot 7.66339 -10.2978
rtoes -0.798493
lfemur -17.9225 -2.55815 -19.694
ltibia 17.5876
lfoot 19.029 -1.22212
ltoes -10.284
1116
root 3.45539 19.467 0.309684 13.6116 -12.9184 -5.69042
lowerback 2.16827 1.10469 4.68784
upperback -7.10326 1.88973 1.48365
thorax -8.60208 0.658176 -1.23175
lowerneck -16.0932 -0.612956 -3.4196
upperneck 25.7846 -0.115832 0.64352
head 10.9997 -0.326423 0.794213
rclavicle 9.51157e-015 2.82026e-015
rhumerus -43.6475 7.90616 -87.5019
rradius 63.6825
rwrist 7.69457
rhand -22.1393 -42.084
rfingers 7.12502
rthumb 4.27422 -792.021
lclavicle 9.51157e-015 2.82026e-015
lhumerus -41.7351 -12.2345 79.7028
lradius 52.0627
lwrist -1.84869
lhand -32.59 -42.4975
lfingers 7.12502
lthumb -5.81835 -12.5974
rfemur -90.8676 16.1614 28.8176
rtibia 138.033
rfoot 7.3907 -10.3581
rtoes 0.421771
lfemur -18.032 -1.85859 -20.3733
ltibia 18.0768
lfoot 20.1476 -1.12905
ltoes -8.71787
1117
root 3.45691 19.3243 0.322787 13.6644 -13.1554 -5.60773
lowerback 1.66168 1.08143 4.8857
upperback -6.95992 1.82423 1.39978
thorax -8.14324 0.621992 -1.41235
lowerneck -15.9732 -0.521021 -3.26636
upperneck 25.5722 0.0195433 0.448741
head 10.8937 -0.271703 0.715696
rclavicle 9.76806e-015 -1.74682e-014
rhumerus -43.4358 8.24084 -87.5214
rradius 64.068
rwrist 8.23544
rhand -19.6359 -44.8906
rfingers 7.12502
rthumb 6.69131 -794.765
lclavicle 9.76806e-015 -1.74682e-014
lhumerus -41.6216 -11.8004 79.1779
lradius 51.7684
lwrist -2.59288
lhand -32.5036 -43.0428
lfingers 7.12502
lthumb -5.73499 -13.1404
rfemur -90.3374 16.8463 28.4008
rtibia 138.075
rfoot 5.92758 -10.9582
rtoes 1.81825
lfemur -18.1019 -1.01044 -20.8702
ltibia 18.5714
lfoot 21.0035 -1.06496
ltoes -7.54108
1118
root 3.45693 19.1911 0.332204 13.7868 -13.5004 -5.49215
lowerback 0.622031 1.12591 5.28285
upperback -6.41759 1.79146 1.10311
thorax -6.93227 0.609901 -1.91484
lowerneck -16.2902 -0.432259 -3.12238
upperneck 25.0739 0.0902313 0.54433
head 10.768 -0.206997 0.733967
rclavicle 8.96356e-015 -8.84592e-015
rhumerus -42.3625 8.296 -87.6983
rradius 64.2255
rwrist 8.59989
rhand -18.3192 -46.2881
rfingers 7.12502
rthumb 7.96222 -796.118
lclavicle 8.96356e-015 -8.84592e-015
lhumerus -40.7831 -11.5766 78.3257
lradius 51.6085
lwrist -2.6417
lhand -31.6347 -43.0759
lfingers 7.12502
lthumb -4.89598 -13.1524
rfemur -91.0918 17.0943 28.1211
rtibia 137.581
rfoot 7.24574 -10.7052
rtoes -1.24574
lfemur -18.1721 -0.0748196 -21.3911
ltibia 18.971
lfoot 19.1293 -1.27783
ltoes -11.1597
1119
root 3.45692 19.0352 0.341491 13.8011 -13.9413 -5.11604
lowerback 0.416206 1.20819 4.91986
upperback -6.33636 1.86714 1.06907
thorax -6.72573 0.67366 -1.74717
lowerneck -16.7028 -0.405822 -3.18287
upperneck 25.1189 0.204612 0.392066
head 10.864 -0.179854 0.705976
rclavicle -1.54525e-014 1.17656e-014
rhumerus -42.1909 8.80188 -87.585
rradius 64.5872
rwrist 7.91858
rhand -19.7613 -45.3325
rfingers 7.12502
rthumb 6.57024 -795.211
lclavicle -1.54525e-014 1.17656e-014
lhumerus -40.7048 -11.2472 78.0753
lradius 51.5846
lwrist -2.67906
lhand -30.9866 -43.0855
lfingers 7.12502
lthumb -4.27024 -13.1486
rfemur -91.6846 17.2825 27.4131
rtibia 137.365
rfoot 6.96359 -10.5134
rtoes -1.5188
lfemur -18.2869 0.767974 -22.1918
ltibia 19.6929
lfoot 16.5217 -1.83448
ltoes -12.9754
1120
root 3.46398 18.8805 0.383636 13.327 -14.6259 -4.95835
lowerback 0.248494 1.33429 4.99109
upperback -6.01028 2.01248 1.01611
thorax -6.26599 0.756775 -1.84229
lowerneck -17.0582 -0.30356 -3.03021
upperneck 25.2243 0.389789 0.141832
head 10.9705 -0.113758 0.616809
rclavicle -2.44133e-014 -3.72721e-014
rhumerus -41.9648 9.37385 -87.6249
rradius 64.8906
rwrist 7.03214
rhand -22.0373 -43.6042
rfingers 7.12502
rthumb 4.37273 -793.539
lclavicle -2.44133e-014 -3.72721e-014
lhumerus -40.6491 -10.9011 77.6431
lradius 51.705
lwrist -2.97362
lhand -30.6298 -43.2563
lfingers 7.12502
lthumb -3.92568 -13.3128
rfemur -90.9251 18.2675 26.8537
rtibia 137.002
rfoot 6.42553 -10.803
rtoes -0.930667
lfemur -17.6519 1.99359 -22.8592
ltibia 20.6088
lfoot 12.784 -2.53892
ltoes -14.6589
